<svg width="16" height="16" viewBox="0 0 16 16" fill="none" xmlns="http://www.w3.org/2000/svg">
<path d="M8.1984 14.7905C9.60689 14.7918 10.983 14.3679 12.1466 13.5743C13.3102 12.7807 14.2071 11.6543 14.72 10.3425C14.7635 10.2196 14.7685 10.0863 14.7342 9.96044C14.6998 9.83462 14.6279 9.72229 14.528 9.63848C14.4215 9.56556 14.2955 9.52654 14.1664 9.52654C14.0373 9.52654 13.9113 9.56556 13.8048 9.63848C13.076 10.1147 12.2242 10.3682 11.3536 10.3681C10.7947 10.3757 10.2397 10.2731 9.72046 10.0663C9.20118 9.85938 8.72774 9.55224 8.32717 9.16237C7.92661 8.77251 7.60676 8.30755 7.38591 7.79406C7.16505 7.28057 7.04751 6.7286 7.04 6.16968C7.04678 5.40008 7.26693 4.64745 7.67594 3.9955C8.08496 3.34356 8.66682 2.81786 9.3568 2.47688C9.46158 2.40917 9.54429 2.31232 9.59476 2.19822C9.64522 2.08413 9.66124 1.95777 9.64084 1.83469C9.62044 1.71162 9.56451 1.59718 9.47994 1.50547C9.39536 1.41376 9.28583 1.34877 9.1648 1.31848C8.84397 1.28303 8.52104 1.2702 8.1984 1.28008C6.37958 1.25262 4.62377 1.94591 3.31435 3.20856C2.00493 4.47122 1.24827 6.20066 1.2096 8.01928C1.2416 9.84295 1.99511 11.5796 3.30507 12.8488C4.61503 14.1179 6.37463 14.8162 8.1984 14.7905ZM12.7296 11.4113C12.1804 12.0821 11.489 12.6225 10.7053 12.9933C9.92164 13.3641 9.06536 13.556 8.1984 13.5553C6.70062 13.5844 5.25254 13.0177 4.17246 11.9796C3.09237 10.9415 2.46865 9.51705 2.4384 8.01928C2.46212 6.68819 2.95766 5.40876 3.83673 4.40896C4.7158 3.40917 5.92129 2.75396 7.2384 2.56008C6.32011 3.54005 5.80975 4.83311 5.8112 6.17608C5.83479 7.63025 6.43429 9.01567 7.47815 10.0283C8.52202 11.041 9.92499 11.5982 11.3792 11.5777C11.8344 11.5772 12.2879 11.5214 12.7296 11.4113Z" fill="#62BF7A"/>
</svg>
